<?xml version="1.0" encoding="UTF-8"?><svg id="a" xmlns="http://www.w3.org/2000/svg" viewBox="0 0 58.64 80"><g id="b"><path id="c" d="M53.41,6.71c-3.45-1-7.1-1.77-10.86-2.32V.87c-3.99-.55-8.48-.87-13.23-.87s-9.24.31-13.23.87v3.52c-3.76.55-7.41,1.32-10.86,2.32l-5.23,1.52v36.95c0,4.88,1.54,9.75,4.59,14.49,2.33,3.63,5.56,7.19,9.59,10.57,3.52,2.96,7.02,5.25,9.35,6.65,2.47,1.49,4.14,2.31,4.33,2.4l1.47.71,1.47-.71c.18-.09,1.85-.91,4.32-2.4,2.32-1.4,5.83-3.69,9.35-6.65,4.03-3.39,7.25-6.94,9.59-10.57,3.04-4.73,4.59-9.61,4.59-14.49V8.22l-5.23-1.52Z" style="fill:#fff;"/><g id="d"><path id="e" d="M34.19,56.71v1.1l-1.1-1.1h1.1Z" style="fill:#00aad2;"/><path id="f" d="M26.78,56.71v1.1l-1.1-1.1h1.1Z" style="fill:#00aad2;"/><path id="g" d="M21.48,58.62c.16-.17.35-.29.58-.38.22-.09.47-.13.74-.13.31,0,.59.07.84.2.26.13.49.32.7.57l1.18-1.07c-.32-.41-.72-.71-1.19-.92-.48-.21-1.02-.31-1.62-.31-.52,0-1,.08-1.43.25-.44.17-.82.4-1.14.7-.32.3-.58.66-.76,1.08-.18.42-.27.88-.27,1.38s.09.96.27,1.38c.18.42.43.78.76,1.08.32.3.71.54,1.14.7.44.17.91.25,1.43.25.61,0,1.15-.11,1.62-.32.48-.21.88-.52,1.19-.93l-1.18-1.07c-.21.26-.45.45-.7.58-.26.13-.54.2-.84.2-.27,0-.51-.04-.74-.13-.22-.09-.42-.21-.58-.38-.16-.16-.28-.36-.37-.59-.09-.23-.14-.49-.14-.77s.05-.54.14-.77c.09-.23.22-.43.37-.59h0Z" style="fill:#00aad2;"/><path id="h" d="M30.54,60.29c0,.56-.11.95-.32,1.2-.22.24-.52.36-.9.36s-.69-.12-.91-.36c-.22-.24-.33-.64-.33-1.2v-3.59h-1.85v3.64c0,.97.27,1.72.81,2.25.54.53,1.29.8,2.26.8s1.71-.26,2.26-.8c.55-.53.82-1.28.82-2.25v-3.64h-1.83v3.59Z" style="fill:#00aad2;"/><path id="i" d="M39.19,57.83c-.23-.36-.57-.64-1.01-.84-.44-.19-.95-.29-1.55-.29h-2.99v6.55h1.85v-1.71h1.13c.6,0,1.12-.1,1.55-.29.44-.2.77-.47,1.01-.83.23-.36.35-.79.35-1.3s-.12-.92-.35-1.29h0ZM37.39,59.83c-.19.17-.48.25-.87.25h-1.02v-1.91h1.02c.39,0,.68.09.87.26.19.17.29.4.29.7s-.1.54-.29.71h0Z" style="fill:#00aad2;"/></g><path id="j" d="M51.59,44.4c0,3.72-1.17,7.47-3.48,11.14-1.22,1.94-2.76,3.86-4.59,5.74,2.21-2.11,4.05-4.27,5.47-6.46,2.42-3.72,3.64-7.52,3.64-11.29v-24.72l-1.03.89v24.7Z" style="fill:#00aad2;"/><path id="k" d="M53.88,16.23v27.54c0,3.96-1.29,7.95-3.84,11.85-2.02,3.1-4.84,6.16-8.37,9.09-3.13,2.6-6.27,4.62-8.34,5.85-2.25,1.34-3.74,2.05-3.8,2.08l-.21.1v4.31l.23-.11c.07-.03,1.67-.81,4.1-2.28,2.23-1.35,5.61-3.55,8.98-6.39,3.81-3.2,6.84-6.54,9.02-9.93,2.74-4.27,4.14-8.62,4.14-12.95V14.67s-1.9,1.56-1.9,1.56Z" style="fill:#00296d;"/><path id="l" d="M51.55,10.92l1.38-1.14-.31-.09c-3.53-1.02-7.27-1.81-11.12-2.34-.49-.07-1-.12-1.5-.18l-.21,1.31c.39.05.78.09,1.16.14,3.67.52,7.23,1.29,10.59,2.3h0Z" style="fill:#00296d;"/><path id="m" d="M7.05,44.4c0,3.72,1.17,7.47,3.48,11.14,1.22,1.94,2.76,3.86,4.59,5.74-2.21-2.11-4.05-4.27-5.47-6.46-2.42-3.72-3.64-7.52-3.64-11.29v-24.72l1.03.89v24.7Z" style="fill:#00aad2;"/><path id="n" d="M4.75,16.23v27.54c0,3.96,1.29,7.95,3.84,11.85,2.02,3.1,4.84,6.16,8.37,9.09,3.13,2.6,6.27,4.62,8.34,5.85,2.25,1.34,3.74,2.05,3.8,2.08l.21.1v4.31l-.23-.11c-.07-.03-1.67-.81-4.1-2.28-2.23-1.35-5.61-3.55-8.98-6.39-3.81-3.2-6.84-6.54-9.02-9.93-2.74-4.27-4.14-8.62-4.14-12.95V14.67s1.9,1.56,1.9,1.56Z" style="fill:#00296d;"/><path id="o" d="M7.09,10.92l-1.38-1.14.31-.09c3.53-1.02,7.27-1.81,11.12-2.34.49-.07,1-.12,1.5-.18l.21,1.31c-.39.05-.78.09-1.16.14-3.67.52-7.23,1.29-10.59,2.3h0Z" style="fill:#00296d;"/><g id="p"><path id="q" d="M16.7,15.35c-.23-.16-.38-.43-.48-1.19l-.12-.96c-.09-.75-.02-1.06.17-1.27.14-.16.36-.26.64-.3.29-.04.53.02.69.13.23.16.38.44.47,1.1h0s-.67.09-.67.09h0c-.06-.45-.09-.75-.41-.71-.32.04-.28.34-.23.72l.16,1.25c.05.4.08.68.4.64.32-.04.29-.32.22-.87h0s.67-.09.67-.09h0c.1.77.01,1.07-.17,1.28-.14.16-.36.26-.64.3-.28.03-.51,0-.69-.13h0Z" style="fill:#00296d;"/><path id="r" d="M20.28,11.33l.03.38.29,2.97.04.38-.67.07-.03-.38-.12-1.27-.65.06.12,1.27.04.38-.67.07-.03-.38-.29-2.97-.04-.38.67-.07.03.38.11,1.11.65-.06-.11-1.11-.04-.38.67-.07Z" style="fill:#00296d;"/><path id="s" d="M21.52,15l-.69.05.4-3.79.91-.07.94,3.69-.68.05-.18-.75-.65.05-.07.77ZM21.64,13.61l.47-.03-.23-.97c-.04-.18-.08-.41-.1-.54h-.03c0,.13-.01.38-.02.56l-.08.99h0Z" style="fill:#00296d;"/><path id="t" d="M23.3,14.48l-.13-2.98-.02-.38.92-.04.46,1.85c.04.14.07.35.09.49h.02c0-.14.02-.36.05-.5l.3-1.88.91-.04v.38s.14,2.98.14,2.98l.02.38-.61.03v-.38s-.09-1.81-.09-1.81c0-.15,0-.36,0-.5h-.03c0,.14-.03.34-.05.49l-.35,2.22-.5.02-.54-2.18c-.04-.14-.07-.35-.1-.48h-.02c.01.14.03.35.04.5l.08,1.81.02.38-.6.03v-.38s-.01,0-.01,0Z" style="fill:#00296d;"/><path id="u" d="M26.51,14.36l-.05-2.98v-.38s.93-.02.93-.02c.84-.01,1.05.48,1.06,1.1h0c.01.63-.19,1.13-1.02,1.14h-.27s.02,1.12.02,1.12v.38s-.66.01-.66.01v-.38s0,0,0,0ZM27.33,12.64c.36,0,.44-.24.43-.54h0c0-.31-.09-.54-.45-.53h-.19s.02,1.07.02,1.07h.19Z" style="fill:#00296d;"/><path id="v" d="M29.39,10.96v.38s0,2.98,0,2.98v.38s-.67,0-.67,0v-.38s0-2.98,0-2.98v-.38s.67,0,.67,0Z" style="fill:#00296d;"/><path id="w" d="M30.16,14.56c-.21-.19-.32-.48-.31-1.24v-.97c.02-.76.14-1.05.36-1.23.16-.14.4-.21.67-.21.28,0,.51.08.67.22.21.19.32.48.31,1.24v.97c-.02.76-.14,1.05-.35,1.23-.16.14-.4.21-.67.21-.27,0-.5-.08-.66-.22ZM31.16,13.48l.02-1.26c0-.39,0-.68-.31-.68-.31,0-.32.29-.32.68l-.02,1.26c0,.39-.01.68.3.68.32,0,.32-.29.33-.68h0Z" style="fill:#00296d;"/><path id="x" d="M33.05,11.03l.61,1.7c.07.2.11.33.14.47h.02c0-.14-.01-.34,0-.49l.05-1.26v-.38s.66.03.66.03l-.02.38-.12,2.98v.38s-.62-.02-.62-.02l-.67-1.92c-.08-.2-.11-.34-.15-.47h-.02c0,.14.01.34,0,.49l-.06,1.48v.38s-.66-.03-.66-.03l.02-.38.12-2.98v-.38s.7.03.7.03h0Z" style="fill:#00296d;"/><path id="y" d="M35.34,13.84c.04.35.19.49.41.5.23.01.35-.11.37-.3.01-.21-.11-.42-.4-.65l-.33-.27c-.4-.33-.55-.69-.53-1.09.04-.58.46-.96,1.07-.93.57.03.88.4.93.99l-.66.05c-.02-.25-.12-.41-.33-.42-.2-.01-.32.12-.34.32-.01.24.14.41.4.63l.33.27c.37.31.55.69.53,1.11-.04.6-.46.96-1.09.92-.62-.04-.98-.44-1.03-1.08l.65-.05h0Z" style="fill:#00296d;"/><path id="z" d="M39.32,11.42l-.04.38-.26,2.97-.03.38-.67-.06.04-.38.11-1.27-.65-.06-.11,1.27-.03.38-.67-.06.04-.38.26-2.97.03-.38.67.06-.04.38-.1,1.11.65.06.1-1.11.03-.38.67.06Z" style="fill:#00296d;"/><path id="aa" d="M40.6,11.57l-.05.38-.32,2.96-.04.38-.67-.07.05-.38.32-2.96.04-.38.67.07Z" style="fill:#00296d;"/><path id="ab" d="M40.69,14.96l.38-2.95.04-.38.93.12c.83.11.97.63.89,1.24h0c-.08.62-.35,1.09-1.17.98l-.27-.03-.14,1.11-.04.38-.67-.09.05-.38h0ZM41.75,13.37c.36.05.46-.17.5-.47h0c.04-.31-.01-.54-.37-.59l-.19-.02-.14,1.06.19.02h0Z" style="fill:#00296d;"/></g><g id="ac"><path id="ad" d="M20.73,9.79l-1.18.09.67-6.54,1.57-.12,1.66,6.36-1.16.09-.32-1.3-1.13.09-.11,1.33ZM20.92,7.41l.8-.06-.4-1.68c-.07-.3-.15-.71-.18-.94h-.05c0,.23-.01.65-.03.96l-.13,1.72Z" style="fill:#00296d;"/><path id="ae" d="M24.62,7.75c.13.59.41.81.8.79.39-.01.59-.25.58-.58-.01-.36-.26-.7-.79-1.06l-.61-.41c-.73-.5-1.06-1.1-1.09-1.78-.04-1,.62-1.73,1.69-1.77.98-.04,1.58.54,1.76,1.55l-1.12.2c-.08-.43-.27-.68-.63-.66-.34.01-.53.26-.52.6.01.41.31.69.8,1.01l.6.4c.7.47,1.06,1.09,1.09,1.82.04,1.04-.63,1.73-1.72,1.77-1.07.04-1.75-.59-1.94-1.67l1.12-.19Z" style="fill:#00296d;"/><path id="af" d="M28.72,6.58v1.85s1.82,0,1.82,0v1.01s-2.97,0-2.97,0v-.66s0-5.15,0-5.15v-.66s2.92,0,2.92,0v1.01s-1.77,0-1.77,0v1.57s1.4,0,1.4,0v1.03s-1.39,0-1.39,0h0Z" style="fill:#00296d;"/><path id="ag" d="M31.96,9.47l-1.18-.04,1.37-6.42,1.57.05.96,6.5-1.17-.04-.17-1.33-1.13-.04-.25,1.31h0ZM32.41,7.12l.8.03-.22-1.71c-.04-.31-.07-.73-.08-.95h-.05c-.02.22-.08.64-.14.94l-.32,1.69h0Z" style="fill:#00296d;"/><path id="ah" d="M36.71,3.21l.95,2.96c.11.34.17.58.21.81h.04c0-.23,0-.59.02-.84l.16-2.17.04-.66,1.13.08-.06.66-.38,5.13-.04.66-1.05-.08-1.05-3.35c-.12-.34-.17-.58-.23-.81h-.04c0,.23,0,.59-.02.84l-.19,2.55-.04.66-1.13-.08.06-.66.38-5.13.04-.66,1.19.09h0Z" style="fill:#00296d;"/></g><g id="ai"><path id="aj" d="M34.22,44.99v.87s-.15,0-.15,0v-.1s0-.77,0-.77h-.18v-.13h.5v.13h-.18Z" style="fill:#00296d;"/><path id="ak" d="M34.5,45.76v-.9s.19,0,.19,0l.12.57s.02.09.02.13h0s0-.09.02-.13l.12-.57h.19v.1s0,.79,0,.79v.1s-.13,0-.13,0v-.1s0-.53,0-.53c0-.04,0-.09,0-.13h0s-.01.09-.02.13l-.13.63h-.11l-.13-.63s-.02-.09-.02-.13h0s0,.09,0,.13v.63s-.13,0-.13,0v-.1Z" style="fill:#00296d;"/></g><path id="al" d="M40.13,20.7c-.35-.9-1.19-1.46-2.34-1.58-1.13-.12-1.97.38-2.5.94.02-.43.04-.87.04-1.31h-1.26c-.28,7.59-2.72,14.63-6.74,20.52-.16,1.71-.55,2.61-1.12,3.2h-.66l-.6,3.39h8.75l-.6-3.39h-.66c-.62-.66-1.05-1.7-1.16-3.82-.07-1.34.55-3.26,1.27-5.54-.35,1.28-.27,2.54.52,3.73.15.23.46.71.53.67,0,0,.21-.01,0-.34-.43-.68-.5-1.04-.52-1.5-.04-.73.07-1.68.51-2.84.59-1.58,1.8-3.54,4.08-5.87l.14-.16c2.04-2.39,2.93-4.58,2.33-6.11h0ZM37.12,26.22l-.14.16c-1.7,1.98-3.52,4.11-4.28,6.2.45-1.41.92-2.95,1.29-4.56.4-1.75.93-4.06,1.18-6.62.57-.7,1.46-1.51,2.51-1.41.83.09,1.38.43,1.61,1.02.18.45.48,2.08-2.18,5.2h0ZM27.34,39.1c3.27-5.71,5.14-12.33,5.14-19.39,0-.32,0-.65-.01-.97h-.57v.58h0s0,.04,0,.06c0,.7-.18,7.06-6.74,8.32-.39-1.67-.9-3.83-1.14-6.28l-.02-.21v-.09s-.07-1.12-.07-1.12c-.01-.23-.02-.46-.03-.69v-.58h-.59c0,.44.02.87.04,1.3-.54-.56-1.37-1.06-2.5-.94-1.16.13-1.99.69-2.34,1.58-.61,1.53.28,3.71,2.33,6.11l.14.16c6.74,6.9,4.06,10.55,4.06,10.55,1.24-1.35,1.47-2.8,1.09-4.28.71,2.22,1.3,4.1,1.23,5.41,0,.16-.02.31-.03.45h0ZM21.65,26.39l-.14-.16c-2.66-3.11-2.35-4.75-2.18-5.2.23-.59.78-.94,1.61-1.02,1.04-.11,1.94.7,2.5,1.4.25,2.56.78,4.88,1.18,6.63.36,1.57.82,3.08,1.26,4.46-.78-2.06-2.57-4.15-4.24-6.1h0Z" style="fill:#00296d;"/><g id="am"><path id="an" d="M26.5,24.3h-.83l1.58-2.18.42.57-1.16,1.61Z" style="fill:#00b451;"/><path id="ao" d="M29.09,24.3l-1.89-2.6.41-.57,2.31,3.17h-.83Z" style="fill:#ffd600;"/><path id="ap" d="M25.35,23.89l-.26-.79,1.88-2.59.67.22-2.29,3.16Z" style="fill:#0055b8;"/><path id="aq" d="M30.39,24.11l-1.58-2.18.67-.22,1.16,1.61-.26.79Z"/><path id="ar" d="M31.45,20.86l-3.05.99-.42-.57,3.72-1.21-.26.79Z" style="fill:#00b451;"/><path id="as" d="M29.13,19.69l1.86-.61.67.49-2.53.83v-.71Z" style="fill:#fd1813;"/><path id="at" d="M28.24,17.08l.67.49v3.18l-.67.22v-3.89Z"/><path id="au" d="M27.07,17.45l.67-.49v2.66l-.67-.22v-1.95Z" style="fill:#0055b8;"/><path id="av" d="M25.01,18.95l3.02.99v.71l-3.7-1.2.67-.49Z" style="fill:#fd1813;"/><path id="aw" d="M26.58,20.69l-.41.57-1.87-.61-.26-.79,2.54.82Z" style="fill:#ffd600;"/></g><g id="ax"><path id="ay" d="M26.7,65.55c0,.52-.26.94-.74,1.51l-.46.57h1.17v.67h-2.03v-.61l.67-.86c.44-.54.66-.89.66-1.27h0c0-.29-.09-.39-.27-.39-.22,0-.31.2-.31.58h0s-.72.01-.72.01h0c0-.86.42-1.24,1.05-1.24.67,0,.98.42.98,1.02h0s0,.01,0,.01Z" style="fill:#002c5f;"/><path id="az" d="M27.37,68.12c-.23-.2-.32-.51-.32-1.23v-.9c0-.72.09-1.02.32-1.23.18-.16.43-.24.72-.24s.55.08.72.24c.23.21.33.51.33,1.23v.9c0,.72-.09,1.02-.33,1.23-.18.16-.42.24-.72.24s-.55-.08-.72-.24ZM28.39,67.06v-1.24c0-.36,0-.64-.3-.64s-.29.28-.29.64v1.24c0,.36,0,.64.29.64s.3-.28.3-.64Z" style="fill:#002c5f;"/><path id="ba" d="M31.54,65.55c0,.52-.26.94-.74,1.51l-.46.57h1.17v.67h-2.03v-.61l.67-.86c.44-.54.66-.89.66-1.27h0c0-.29-.09-.39-.27-.39-.22,0-.31.2-.31.58h0s-.72.01-.72.01h0c0-.86.42-1.24,1.05-1.24.67,0,.98.42.98,1.02h0s0,.01,0,.01Z" style="fill:#002c5f;"/><path id="bb" d="M32.66,66.2c.17-.15.36-.22.57-.22.19,0,.36.06.49.18.19.17.28.45.28.96,0,.6-.12.84-.34,1.02-.18.15-.41.22-.7.22-.31,0-.55-.08-.71-.22-.23-.19-.35-.53-.35-1.26v-.89c0-.72.11-1.07.35-1.26.18-.15.42-.21.68-.21.29,0,.52.08.69.22.19.16.31.43.31.91h0s-.73.01-.73.01h0c0-.25,0-.49-.26-.49s-.27.25-.27.65v.38ZM32.66,66.75v.29c0,.41,0,.68.29.68s.29-.26.29-.56c0-.28,0-.53-.29-.53-.1,0-.22.04-.3.12h0Z" style="fill:#002c5f;"/></g><g id="bc"><path id="bd" d="M14.96,50.77h-2.75v-2.57h-1.6v6.6h1.6v-2.63h2.75v2.63h1.6v-6.6h-1.6v2.57Z" style="fill:#002c5f;"/><path id="be" d="M19.77,52.29l-1.13-2.6h-1.68l1.98,4.36-1.06,2.34h1.69l2.92-6.7h-1.69l-1.04,2.6Z" style="fill:#002c5f;"/><path id="bf" d="M26.26,52.81c-.09.34-.39.72-.92.72-.6,0-.9-.32-.9-.98v-2.86h-1.57v3.01c0,1.41.69,2.22,1.91,2.22.63,0,1.16-.23,1.48-.65v.52h1.57v-5.11h-1.57v3.12h0Z" style="fill:#002c5f;"/><path id="bg" d="M31.71,49.57c-.63,0-1.16.23-1.48.65v-.52h-1.57v5.11h1.57v-3.12c.09-.34.39-.72.92-.72.6,0,.9.32.9.98v2.86h1.57v-3.01c0-1.41-.69-2.22-1.91-2.22h0Z" style="fill:#002c5f;"/><path id="bh" d="M38.06,50.14c-.39-.37-.89-.57-1.43-.57-1.46,0-2.44,1.08-2.44,2.68s.98,2.68,2.44,2.68c.54,0,1.04-.2,1.43-.56v.44h1.57v-6.89h-1.57v2.22ZM38.06,51.56v1.38c-.19.36-.61.6-1.07.6-.74,0-1.21-.51-1.21-1.29s.48-1.29,1.21-1.29c.46,0,.88.24,1.07.61Z" style="fill:#002c5f;"/><path id="bi" d="M44.08,50.14c-.39-.37-.89-.57-1.43-.57-1.46,0-2.44,1.08-2.44,2.68s.98,2.68,2.44,2.68c.54,0,1.04-.2,1.43-.56v.44h1.57v-5.11h-1.57v.44h0ZM44.08,52.94c-.19.36-.61.6-1.07.6-.74,0-1.21-.51-1.21-1.29s.48-1.29,1.21-1.29c.46,0,.88.24,1.07.61v1.38Z" style="fill:#002c5f;"/><path id="bj" d="M48,49.69h-1.57v5.11h1.57v-5.11Z" style="fill:#002c5f;"/><path id="bk" d="M48,47.5h-1.57v1.53h1.57v-1.53Z" style="fill:#002c5f;"/></g></g></svg>